<mxfile host="app.diagrams.net" modified="2023-10-10T22:14:28.352Z" agent="Mozilla/5.0 (Windows NT 10.0; Win64; x64) AppleWebKit/537.36 (KHTML, like Gecko) Chrome/117.0.0.0 Safari/537.36" etag="Zmau21-CBhqy-Jgm62Av" version="22.0.4" type="device">
  <diagram name="Страница — 1" id="Q_r2LRVpv227GeGCbf8S">
    <mxGraphModel dx="1771" dy="2801" grid="1" gridSize="10" guides="1" tooltips="1" connect="1" arrows="1" fold="1" page="1" pageScale="1" pageWidth="827" pageHeight="1169" math="0" shadow="0">
      <root>
        <mxCell id="0" />
        <mxCell id="1" parent="0" />
        <mxCell id="pc69bhJ9kPee6xL6Yeo5-6" style="edgeStyle=elbowEdgeStyle;rounded=0;orthogonalLoop=1;jettySize=auto;html=1;entryX=0;entryY=0.5;entryDx=0;entryDy=0;" parent="1" source="pc69bhJ9kPee6xL6Yeo5-2" target="pc69bhJ9kPee6xL6Yeo5-7" edge="1">
          <mxGeometry relative="1" as="geometry">
            <mxPoint x="251.6" y="440" as="targetPoint" />
            <Array as="points">
              <mxPoint x="50" y="400" />
            </Array>
          </mxGeometry>
        </mxCell>
        <mxCell id="pc69bhJ9kPee6xL6Yeo5-2" value="&lt;font style=&quot;font-size: 32px;&quot;&gt;Интернет-магазин&lt;br&gt;кроссовок&lt;/font&gt;" style="rounded=0;whiteSpace=wrap;html=1;" parent="1" vertex="1">
          <mxGeometry x="-160" y="285" width="190" height="125" as="geometry" />
        </mxCell>
        <mxCell id="pc69bhJ9kPee6xL6Yeo5-3" value="" style="endArrow=classic;html=1;rounded=0;" parent="1" edge="1">
          <mxGeometry width="50" height="50" relative="1" as="geometry">
            <mxPoint x="-250" y="329.46999999999997" as="sourcePoint" />
            <mxPoint x="-170" y="329.46999999999997" as="targetPoint" />
          </mxGeometry>
        </mxCell>
        <mxCell id="pc69bhJ9kPee6xL6Yeo5-4" value="&lt;font style=&quot;font-size: 32px;&quot;&gt;Пользователи&lt;/font&gt;" style="text;html=1;align=center;verticalAlign=middle;resizable=0;points=[];autosize=1;strokeColor=none;fillColor=none;" parent="1" vertex="1">
          <mxGeometry x="-435" y="305" width="230" height="50" as="geometry" />
        </mxCell>
        <mxCell id="pc69bhJ9kPee6xL6Yeo5-5" value="" style="endArrow=classic;html=1;rounded=0;strokeWidth=5;" parent="1" edge="1">
          <mxGeometry width="50" height="50" relative="1" as="geometry">
            <mxPoint x="-76" y="-630" as="sourcePoint" />
            <mxPoint x="-74.86" y="285" as="targetPoint" />
          </mxGeometry>
        </mxCell>
        <mxCell id="pc69bhJ9kPee6xL6Yeo5-10" style="edgeStyle=orthogonalEdgeStyle;rounded=0;orthogonalLoop=1;jettySize=auto;html=1;exitX=1;exitY=0.5;exitDx=0;exitDy=0;entryX=0;entryY=0.5;entryDx=0;entryDy=0;" parent="1" source="pc69bhJ9kPee6xL6Yeo5-7" target="pc69bhJ9kPee6xL6Yeo5-11" edge="1">
          <mxGeometry relative="1" as="geometry">
            <mxPoint x="940" y="660" as="targetPoint" />
            <Array as="points">
              <mxPoint x="620" y="440" />
              <mxPoint x="620" y="540" />
            </Array>
          </mxGeometry>
        </mxCell>
        <mxCell id="pc69bhJ9kPee6xL6Yeo5-7" value="&lt;font style=&quot;font-size: 32px;&quot;&gt;Управление&lt;br&gt;пользователями&lt;/font&gt;" style="rounded=0;whiteSpace=wrap;html=1;" parent="1" vertex="1">
          <mxGeometry x="360" y="360" width="250" height="130" as="geometry" />
        </mxCell>
        <mxCell id="pc69bhJ9kPee6xL6Yeo5-8" value="&lt;font style=&quot;font-size: 20px;&quot;&gt;Запрос на&amp;nbsp; регистрацию &lt;br&gt;или авторизацию&lt;/font&gt;" style="text;html=1;align=center;verticalAlign=middle;resizable=0;points=[];autosize=1;strokeColor=none;fillColor=none;" parent="1" vertex="1">
          <mxGeometry x="85" y="355" width="250" height="60" as="geometry" />
        </mxCell>
        <mxCell id="pc69bhJ9kPee6xL6Yeo5-9" value="" style="endArrow=classic;html=1;rounded=0;edgeStyle=orthogonalEdgeStyle;entryX=0.5;entryY=0;entryDx=0;entryDy=0;strokeWidth=5;" parent="1" target="pc69bhJ9kPee6xL6Yeo5-7" edge="1">
          <mxGeometry width="50" height="50" relative="1" as="geometry">
            <mxPoint x="-80" y="-550" as="sourcePoint" />
            <mxPoint x="300" y="-550" as="targetPoint" />
            <Array as="points">
              <mxPoint x="470" y="-550" />
            </Array>
          </mxGeometry>
        </mxCell>
        <mxCell id="pc69bhJ9kPee6xL6Yeo5-13" style="edgeStyle=orthogonalEdgeStyle;rounded=0;orthogonalLoop=1;jettySize=auto;html=1;exitX=1;exitY=0.5;exitDx=0;exitDy=0;entryX=0;entryY=0.5;entryDx=0;entryDy=0;" parent="1" source="pc69bhJ9kPee6xL6Yeo5-11" target="pc69bhJ9kPee6xL6Yeo5-14" edge="1">
          <mxGeometry relative="1" as="geometry">
            <mxPoint x="1450" y="830" as="targetPoint" />
            <Array as="points">
              <mxPoint x="1090" y="540" />
              <mxPoint x="1090" y="630" />
            </Array>
          </mxGeometry>
        </mxCell>
        <mxCell id="pc69bhJ9kPee6xL6Yeo5-11" value="&lt;font style=&quot;font-size: 32px;&quot;&gt;Каталог товаров&lt;/font&gt;" style="rounded=0;whiteSpace=wrap;html=1;" parent="1" vertex="1">
          <mxGeometry x="870" y="490" width="210" height="100" as="geometry" />
        </mxCell>
        <mxCell id="pc69bhJ9kPee6xL6Yeo5-12" value="&lt;font style=&quot;font-size: 20px;&quot;&gt;Зарегистрированные &lt;br&gt;клиенты&lt;/font&gt;" style="text;html=1;align=center;verticalAlign=middle;resizable=0;points=[];autosize=1;strokeColor=none;fillColor=none;" parent="1" vertex="1">
          <mxGeometry x="640" y="470" width="220" height="60" as="geometry" />
        </mxCell>
        <mxCell id="pc69bhJ9kPee6xL6Yeo5-16" style="edgeStyle=orthogonalEdgeStyle;rounded=0;orthogonalLoop=1;jettySize=auto;html=1;exitX=1;exitY=0.5;exitDx=0;exitDy=0;entryX=0;entryY=0.5;entryDx=0;entryDy=0;" parent="1" source="pc69bhJ9kPee6xL6Yeo5-14" target="pc69bhJ9kPee6xL6Yeo5-17" edge="1">
          <mxGeometry relative="1" as="geometry">
            <mxPoint x="2320" y="1260" as="targetPoint" />
            <Array as="points">
              <mxPoint x="1820" y="640" />
              <mxPoint x="1840" y="640" />
              <mxPoint x="1840" y="770" />
            </Array>
          </mxGeometry>
        </mxCell>
        <mxCell id="pc69bhJ9kPee6xL6Yeo5-14" value="&lt;font style=&quot;font-size: 32px;&quot;&gt;Управление товарами и каталогом&lt;/font&gt;" style="rounded=0;whiteSpace=wrap;html=1;" parent="1" vertex="1">
          <mxGeometry x="1600" y="570" width="220" height="120" as="geometry" />
        </mxCell>
        <mxCell id="pc69bhJ9kPee6xL6Yeo5-15" value="&lt;font style=&quot;font-size: 20px;&quot;&gt;Управление информацией &lt;br&gt;о кроссовках (характеристики, цены и наличие).&lt;/font&gt;" style="text;html=1;align=center;verticalAlign=middle;resizable=0;points=[];autosize=1;strokeColor=none;fillColor=none;" parent="1" vertex="1">
          <mxGeometry x="1110" y="570" width="470" height="60" as="geometry" />
        </mxCell>
        <mxCell id="pc69bhJ9kPee6xL6Yeo5-20" style="edgeStyle=orthogonalEdgeStyle;rounded=0;orthogonalLoop=1;jettySize=auto;html=1;exitX=1;exitY=0.5;exitDx=0;exitDy=0;entryX=-0.01;entryY=0.535;entryDx=0;entryDy=0;entryPerimeter=0;" parent="1" source="pc69bhJ9kPee6xL6Yeo5-17" target="pc69bhJ9kPee6xL6Yeo5-21" edge="1">
          <mxGeometry relative="1" as="geometry">
            <mxPoint x="2630" y="930" as="targetPoint" />
            <Array as="points">
              <mxPoint x="2400" y="780" />
              <mxPoint x="2420" y="780" />
              <mxPoint x="2420" y="929" />
            </Array>
          </mxGeometry>
        </mxCell>
        <mxCell id="pc69bhJ9kPee6xL6Yeo5-17" value="&lt;font style=&quot;font-size: 32px;&quot;&gt;Управление заказами и доставкой&amp;nbsp;&lt;/font&gt;" style="rounded=0;whiteSpace=wrap;html=1;" parent="1" vertex="1">
          <mxGeometry x="2170" y="710" width="230" height="120" as="geometry" />
        </mxCell>
        <mxCell id="pc69bhJ9kPee6xL6Yeo5-18" value="&lt;font style=&quot;font-size: 20px;&quot;&gt;Отслеживание локации &lt;br&gt;и статуса заказа&lt;/font&gt;" style="text;html=1;align=center;verticalAlign=middle;resizable=0;points=[];autosize=1;strokeColor=none;fillColor=none;" parent="1" vertex="1">
          <mxGeometry x="1895" y="710" width="240" height="60" as="geometry" />
        </mxCell>
        <mxCell id="pc69bhJ9kPee6xL6Yeo5-24" style="edgeStyle=orthogonalEdgeStyle;rounded=0;orthogonalLoop=1;jettySize=auto;html=1;exitX=1;exitY=0.5;exitDx=0;exitDy=0;entryX=0;entryY=0.5;entryDx=0;entryDy=0;" parent="1" source="pc69bhJ9kPee6xL6Yeo5-21" target="pc69bhJ9kPee6xL6Yeo5-25" edge="1">
          <mxGeometry relative="1" as="geometry">
            <mxPoint x="3620" y="2090" as="targetPoint" />
            <Array as="points">
              <mxPoint x="2850" y="940" />
              <mxPoint x="2860" y="940" />
              <mxPoint x="2860" y="1065" />
            </Array>
          </mxGeometry>
        </mxCell>
        <mxCell id="pc69bhJ9kPee6xL6Yeo5-21" value="&lt;font style=&quot;font-size: 32px;&quot;&gt;Оплата заказов&lt;/font&gt;" style="rounded=0;whiteSpace=wrap;html=1;" parent="1" vertex="1">
          <mxGeometry x="2640" y="860" width="210" height="130" as="geometry" />
        </mxCell>
        <mxCell id="pc69bhJ9kPee6xL6Yeo5-22" value="&lt;font style=&quot;font-size: 20px;&quot;&gt;Финансовые&lt;br&gt;&amp;nbsp;транзакции&lt;/font&gt;" style="text;html=1;align=center;verticalAlign=middle;resizable=0;points=[];autosize=1;strokeColor=none;fillColor=none;" parent="1" vertex="1">
          <mxGeometry x="2460" y="850" width="140" height="60" as="geometry" />
        </mxCell>
        <mxCell id="pc69bhJ9kPee6xL6Yeo5-27" style="edgeStyle=orthogonalEdgeStyle;rounded=0;orthogonalLoop=1;jettySize=auto;html=1;exitX=1;exitY=0.5;exitDx=0;exitDy=0;entryX=0;entryY=0.5;entryDx=0;entryDy=0;" parent="1" source="pc69bhJ9kPee6xL6Yeo5-25" target="pc69bhJ9kPee6xL6Yeo5-28" edge="1">
          <mxGeometry relative="1" as="geometry">
            <mxPoint x="4080" y="2240" as="targetPoint" />
            <Array as="points">
              <mxPoint x="3390" y="1070" />
              <mxPoint x="3410" y="1070" />
              <mxPoint x="3410" y="1135" />
            </Array>
          </mxGeometry>
        </mxCell>
        <mxCell id="pc69bhJ9kPee6xL6Yeo5-25" value="&lt;font style=&quot;font-size: 32px;&quot;&gt;Анализ действий&lt;/font&gt;" style="rounded=0;whiteSpace=wrap;html=1;" parent="1" vertex="1">
          <mxGeometry x="3190" y="1010" width="200" height="110" as="geometry" />
        </mxCell>
        <mxCell id="pc69bhJ9kPee6xL6Yeo5-26" value="&lt;font style=&quot;font-size: 20px;&quot;&gt;Данные о поведении&lt;br&gt;&amp;nbsp;пользователей&lt;/font&gt;" style="text;html=1;align=center;verticalAlign=middle;resizable=0;points=[];autosize=1;strokeColor=none;fillColor=none;" parent="1" vertex="1">
          <mxGeometry x="2915" y="990" width="220" height="60" as="geometry" />
        </mxCell>
        <mxCell id="pc69bhJ9kPee6xL6Yeo5-28" value="&lt;font style=&quot;font-size: 32px;&quot;&gt;Интерфейс и взаимосвязь&lt;/font&gt;" style="rounded=0;whiteSpace=wrap;html=1;" parent="1" vertex="1">
          <mxGeometry x="3750" y="1080" width="220" height="110" as="geometry" />
        </mxCell>
        <mxCell id="pc69bhJ9kPee6xL6Yeo5-31" value="&lt;font style=&quot;font-size: 20px;&quot;&gt;Кроссовки&lt;/font&gt;" style="text;html=1;align=center;verticalAlign=middle;resizable=0;points=[];autosize=1;strokeColor=none;fillColor=none;" parent="1" vertex="1">
          <mxGeometry x="3990" y="1090" width="120" height="40" as="geometry" />
        </mxCell>
        <mxCell id="pc69bhJ9kPee6xL6Yeo5-32" value="&lt;font style=&quot;font-size: 20px;&quot;&gt;Устранение недоработок&lt;/font&gt;" style="text;html=1;align=center;verticalAlign=middle;resizable=0;points=[];autosize=1;strokeColor=none;fillColor=none;" parent="1" vertex="1">
          <mxGeometry x="3430" y="1215" width="260" height="40" as="geometry" />
        </mxCell>
        <mxCell id="pc69bhJ9kPee6xL6Yeo5-33" style="edgeStyle=orthogonalEdgeStyle;rounded=1;orthogonalLoop=1;jettySize=auto;html=1;exitX=1;exitY=0.75;exitDx=0;exitDy=0;entryX=0;entryY=0.75;entryDx=0;entryDy=0;" parent="1" source="pc69bhJ9kPee6xL6Yeo5-28" target="pc69bhJ9kPee6xL6Yeo5-28" edge="1">
          <mxGeometry relative="1" as="geometry">
            <Array as="points">
              <mxPoint x="4010" y="1165" />
              <mxPoint x="4010" y="1290" />
              <mxPoint x="3700" y="1290" />
              <mxPoint x="3700" y="1165" />
            </Array>
          </mxGeometry>
        </mxCell>
        <mxCell id="pc69bhJ9kPee6xL6Yeo5-34" value="&lt;font style=&quot;font-size: 32px;&quot;&gt;Пожелания и требования&lt;/font&gt;" style="text;html=1;align=center;verticalAlign=middle;resizable=0;points=[];autosize=1;strokeColor=none;fillColor=none;" parent="1" vertex="1">
          <mxGeometry x="-280" y="-662" width="400" height="50" as="geometry" />
        </mxCell>
        <mxCell id="QBVdMGfrIr4KWs3VgqCs-2" value="" style="endArrow=classic;html=1;rounded=0;edgeStyle=orthogonalEdgeStyle;entryX=0.5;entryY=0;entryDx=0;entryDy=0;strokeWidth=5;" edge="1" parent="1" target="pc69bhJ9kPee6xL6Yeo5-11">
          <mxGeometry width="50" height="50" relative="1" as="geometry">
            <mxPoint x="470" y="-550" as="sourcePoint" />
            <mxPoint x="1040" y="-540" as="targetPoint" />
          </mxGeometry>
        </mxCell>
        <mxCell id="QBVdMGfrIr4KWs3VgqCs-3" value="" style="endArrow=classic;html=1;rounded=0;entryX=0.5;entryY=1;entryDx=0;entryDy=0;strokeWidth=5;" edge="1" parent="1" target="pc69bhJ9kPee6xL6Yeo5-2">
          <mxGeometry width="50" height="50" relative="1" as="geometry">
            <mxPoint x="-75" y="1530" as="sourcePoint" />
            <mxPoint x="360" y="870" as="targetPoint" />
          </mxGeometry>
        </mxCell>
        <mxCell id="QBVdMGfrIr4KWs3VgqCs-4" value="" style="endArrow=none;html=1;rounded=1;strokeWidth=5;" edge="1" parent="1">
          <mxGeometry width="50" height="50" relative="1" as="geometry">
            <mxPoint x="-78" y="1530" as="sourcePoint" />
            <mxPoint x="3850" y="1530" as="targetPoint" />
          </mxGeometry>
        </mxCell>
        <mxCell id="QBVdMGfrIr4KWs3VgqCs-6" value="" style="endArrow=classic;html=1;rounded=0;entryX=0.5;entryY=1;entryDx=0;entryDy=0;strokeWidth=2;" edge="1" parent="1" target="pc69bhJ9kPee6xL6Yeo5-7">
          <mxGeometry width="50" height="50" relative="1" as="geometry">
            <mxPoint x="470" y="1530" as="sourcePoint" />
            <mxPoint x="110" y="1160" as="targetPoint" />
          </mxGeometry>
        </mxCell>
        <mxCell id="QBVdMGfrIr4KWs3VgqCs-7" value="" style="endArrow=classic;html=1;rounded=0;entryX=0.5;entryY=1;entryDx=0;entryDy=0;strokeWidth=3;" edge="1" parent="1">
          <mxGeometry width="50" height="50" relative="1" as="geometry">
            <mxPoint x="970" y="1530" as="sourcePoint" />
            <mxPoint x="970" y="610" as="targetPoint" />
          </mxGeometry>
        </mxCell>
        <mxCell id="QBVdMGfrIr4KWs3VgqCs-9" value="" style="endArrow=classic;html=1;rounded=1;entryX=0.5;entryY=1;entryDx=0;entryDy=0;strokeWidth=3;" edge="1" parent="1" target="pc69bhJ9kPee6xL6Yeo5-14">
          <mxGeometry width="50" height="50" relative="1" as="geometry">
            <mxPoint x="1700" y="1530" as="sourcePoint" />
            <mxPoint x="1640" y="980" as="targetPoint" />
          </mxGeometry>
        </mxCell>
        <mxCell id="QBVdMGfrIr4KWs3VgqCs-10" value="&lt;font style=&quot;font-size: 32px;&quot;&gt;Свободные ресурсы&lt;/font&gt;" style="text;html=1;align=center;verticalAlign=middle;resizable=0;points=[];autosize=1;strokeColor=none;fillColor=none;" vertex="1" parent="1">
          <mxGeometry x="1545" y="-625" width="330" height="50" as="geometry" />
        </mxCell>
        <mxCell id="QBVdMGfrIr4KWs3VgqCs-12" value="" style="endArrow=classic;html=1;rounded=0;entryX=0.5;entryY=0;entryDx=0;entryDy=0;strokeWidth=5;" edge="1" parent="1" target="pc69bhJ9kPee6xL6Yeo5-14">
          <mxGeometry width="50" height="50" relative="1" as="geometry">
            <mxPoint x="1700" y="-550" as="sourcePoint" />
            <mxPoint x="1680" y="-520" as="targetPoint" />
          </mxGeometry>
        </mxCell>
        <mxCell id="QBVdMGfrIr4KWs3VgqCs-13" value="" style="endArrow=classic;html=1;rounded=0;edgeStyle=orthogonalEdgeStyle;entryX=0.5;entryY=0;entryDx=0;entryDy=0;strokeWidth=5;" edge="1" parent="1" target="pc69bhJ9kPee6xL6Yeo5-17">
          <mxGeometry width="50" height="50" relative="1" as="geometry">
            <mxPoint x="1700" y="-550" as="sourcePoint" />
            <mxPoint x="2060" y="-500" as="targetPoint" />
          </mxGeometry>
        </mxCell>
        <mxCell id="QBVdMGfrIr4KWs3VgqCs-14" value="&lt;font style=&quot;font-size: 32px;&quot;&gt;Финансирование&lt;/font&gt;" style="text;html=1;align=center;verticalAlign=middle;resizable=0;points=[];autosize=1;strokeColor=none;fillColor=none;" vertex="1" parent="1">
          <mxGeometry x="2590" y="-620" width="280" height="50" as="geometry" />
        </mxCell>
        <mxCell id="QBVdMGfrIr4KWs3VgqCs-15" value="" style="endArrow=classic;html=1;rounded=0;edgeStyle=orthogonalEdgeStyle;entryX=0.5;entryY=0;entryDx=0;entryDy=0;strokeWidth=5;" edge="1" parent="1" target="pc69bhJ9kPee6xL6Yeo5-21">
          <mxGeometry width="50" height="50" relative="1" as="geometry">
            <mxPoint x="2270" y="-550" as="sourcePoint" />
            <mxPoint x="2730" y="570" as="targetPoint" />
          </mxGeometry>
        </mxCell>
        <mxCell id="QBVdMGfrIr4KWs3VgqCs-16" value="" style="endArrow=classic;html=1;rounded=0;strokeWidth=5;" edge="1" parent="1">
          <mxGeometry width="50" height="50" relative="1" as="geometry">
            <mxPoint x="3850" y="1530" as="sourcePoint" />
            <mxPoint x="3850" y="1180" as="targetPoint" />
          </mxGeometry>
        </mxCell>
        <mxCell id="QBVdMGfrIr4KWs3VgqCs-17" value="" style="endArrow=none;html=1;rounded=0;exitX=1;exitY=0.5;exitDx=0;exitDy=0;" edge="1" parent="1" source="pc69bhJ9kPee6xL6Yeo5-28">
          <mxGeometry width="50" height="50" relative="1" as="geometry">
            <mxPoint x="3860" y="1580" as="sourcePoint" />
            <mxPoint x="4130" y="1135" as="targetPoint" />
          </mxGeometry>
        </mxCell>
        <mxCell id="QBVdMGfrIr4KWs3VgqCs-18" value="" style="endArrow=classic;html=1;rounded=0;entryX=0.5;entryY=0;entryDx=0;entryDy=0;strokeWidth=3;" edge="1" parent="1" target="pc69bhJ9kPee6xL6Yeo5-25">
          <mxGeometry width="50" height="50" relative="1" as="geometry">
            <mxPoint x="3290" y="-540" as="sourcePoint" />
            <mxPoint x="3470" y="590" as="targetPoint" />
          </mxGeometry>
        </mxCell>
        <mxCell id="QBVdMGfrIr4KWs3VgqCs-19" value="" style="endArrow=classic;html=1;rounded=0;entryX=0.5;entryY=0;entryDx=0;entryDy=0;strokeWidth=3;" edge="1" parent="1">
          <mxGeometry width="50" height="50" relative="1" as="geometry">
            <mxPoint x="3848" y="-550" as="sourcePoint" />
            <mxPoint x="3848.33" y="1080" as="targetPoint" />
          </mxGeometry>
        </mxCell>
        <mxCell id="QBVdMGfrIr4KWs3VgqCs-20" value="" style="endArrow=none;html=1;rounded=1;strokeWidth=5;" edge="1" parent="1">
          <mxGeometry width="50" height="50" relative="1" as="geometry">
            <mxPoint x="1700" y="1870" as="sourcePoint" />
            <mxPoint x="1700" y="1530" as="targetPoint" />
          </mxGeometry>
        </mxCell>
        <mxCell id="QBVdMGfrIr4KWs3VgqCs-21" value="&lt;font style=&quot;font-size: 32px;&quot;&gt;Пользователи с ролями и правами доступа&amp;nbsp;&lt;/font&gt;" style="text;html=1;align=center;verticalAlign=middle;resizable=0;points=[];autosize=1;strokeColor=none;fillColor=none;" vertex="1" parent="1">
          <mxGeometry x="1360" y="1870" width="680" height="50" as="geometry" />
        </mxCell>
        <mxCell id="QBVdMGfrIr4KWs3VgqCs-22" value="&lt;font style=&quot;&quot;&gt;&lt;font style=&quot;font-size: 20px;&quot;&gt;Рекламные агентства, &lt;br&gt;опрос аудитории &lt;br&gt;о достоинствах и недостатках&lt;/font&gt;&lt;br&gt;&lt;/font&gt;" style="text;html=1;align=center;verticalAlign=middle;resizable=0;points=[];autosize=1;strokeColor=none;fillColor=none;" vertex="1" parent="1">
          <mxGeometry x="3430" y="1050" width="300" height="90" as="geometry" />
        </mxCell>
      </root>
    </mxGraphModel>
  </diagram>
</mxfile>
